<?xml version="1.0" standalone="no"?>
<!DOCTYPE svg PUBLIC "-//W3C//DTD SVG 20010904//EN"
 "http://www.w3.org/TR/2001/REC-SVG-20010904/DTD/svg10.dtd">
<svg version="1.0" xmlns="http://www.w3.org/2000/svg"
 width="2064.000000pt" height="1108.000000pt" viewBox="0 0 2064.000000 1108.000000"
 preserveAspectRatio="xMidYMid meet">

<g transform="translate(0.000000,1108.000000) scale(0.100000,-0.100000)"
fill="#ffffff" stroke="none">
<path d="M9990 10745 l-325 -325 -4192 0 -4192 0 -45 -22 -45 -22 41 -18 c39
-17 199 -18 4232 -18 l4191 0 332 -332 333 -333 333 333 332 332 4195 0 c4060
1 4196 1 4235 19 l40 19 -48 21 -49 21 -4191 0 -4192 0 -325 325 c-179 179
-327 325 -330 325 -3 0 -151 -146 -330 -325z m622 -72 c159 -159 288 -292 288
-298 0 -6 -129 -139 -288 -298 l-287 -287 -295 295 -295 295 290 290 c159 159
292 290 295 290 3 0 134 -129 292 -287z"/>
<path d="M10117 10572 l-197 -197 200 -200 200 -200 200 200 200 200 -197 197
c-109 109 -200 198 -203 198 -3 0 -94 -89 -203 -198z m351 -55 l142 -142 -143
-143 -142 -142 -145 145 -145 145 140 140 c77 77 142 140 145 140 3 0 69 -64
148 -143z"/>
<path d="M9433 9400 c-48 -11 -80 -35 -105 -80 l-23 -40 -4550 -1 c-4292 0
-4555 -1 -4645 -18 -105 -19 -103 -22 35 -46 80 -13 584 -15 4627 -15 l4537 0
17 -35 c22 -48 87 -85 146 -85 83 0 158 74 158 157 0 109 -93 186 -197 163z"/>
<path d="M11134 9400 c-75 -17 -124 -81 -124 -163 0 -52 28 -100 79 -134 71
-48 184 -17 224 60 l19 37 4536 0 c4043 0 4547 2 4627 15 138 24 140 27 35 46
-90 17 -353 18 -4647 18 -4477 1 -4552 1 -4558 20 -22 71 -112 119 -191 101z"/>
<path d="M3405 8539 c-389 -40 -732 -160 -1040 -363 -142 -94 -224 -161 -363
-299 -398 -394 -614 -830 -703 -1422 -22 -142 -19 -648 5 -795 82 -517 293
-933 648 -1275 328 -317 704 -476 1263 -536 142 -15 635 -15 790 0 283 28 522
80 715 157 126 49 193 83 390 198 206 121 292 162 378 182 97 22 101 23 112
45 7 13 12 263 13 742 l2 722 29 63 c34 73 96 133 162 156 24 9 64 23 89 32
77 27 95 84 39 121 -22 14 -44 14 -207 4 -103 -7 -397 -11 -675 -11 -435 1
-496 -1 -518 -15 -39 -25 -30 -76 17 -101 16 -8 82 -21 147 -29 235 -29 319
-71 364 -184 22 -55 23 -67 26 -504 3 -431 2 -451 -18 -535 -55 -220 -185
-411 -379 -558 -452 -340 -1243 -419 -1837 -183 -280 112 -480 282 -580 494
-75 159 -72 97 -76 1440 -3 1325 -7 1242 59 1435 128 376 459 662 909 785 177
49 327 68 529 68 509 0 989 -174 1345 -487 199 -175 380 -441 462 -680 27 -79
56 -116 93 -116 78 0 86 40 46 236 -28 140 -91 670 -92 779 0 28 -5 66 -12 85
-19 54 -51 52 -138 -9 -40 -28 -83 -51 -96 -51 -13 0 -66 25 -119 55 -298 172
-789 313 -1234 354 -131 12 -427 12 -545 0z"/>
<path d="M15220 8030 c-104 -18 -191 -82 -231 -173 -34 -75 -34 -210 0 -285
85 -189 356 -219 500 -56 113 129 88 377 -47 467 -65 42 -147 60 -222 47z"/>
<path d="M7266 6738 c-16 -6 -62 -30 -103 -55 -240 -141 -462 -225 -673 -253
-47 -6 -95 -18 -107 -26 -31 -19 -39 -58 -20 -88 15 -22 22 -24 159 -28 106
-4 156 -10 193 -24 71 -27 146 -104 176 -179 l24 -60 0 -895 c0 -950 -2 -991
-47 -1072 -28 -50 -80 -83 -173 -110 -42 -12 -85 -30 -95 -41 -26 -23 -25 -59
0 -82 18 -16 30 -17 132 -9 145 12 979 11 1124 0 106 -9 112 -8 133 13 28 28
27 65 -4 89 -18 15 -48 22 -103 27 -174 15 -249 27 -297 49 -101 46 -153 126
-180 280 -22 130 -23 1473 0 1560 49 187 196 334 366 366 132 25 222 2 389
-100 63 -38 123 -70 133 -70 39 0 211 191 249 277 16 37 17 46 5 75 -21 50
-61 92 -150 159 -108 80 -213 131 -281 137 -190 16 -420 -160 -660 -502 l-76
-108 0 314 c0 304 -1 316 -21 342 -22 28 -45 31 -93 14z"/>
<path d="M15275 6674 c-252 -120 -362 -169 -475 -209 -127 -45 -178 -72 -186
-99 -12 -35 25 -52 128 -59 199 -14 242 -51 267 -231 15 -103 15 -1765 1
-1856 -14 -83 -52 -163 -96 -196 -18 -14 -66 -38 -105 -53 -87 -31 -119 -66
-101 -106 21 -46 46 -50 230 -35 204 17 631 17 861 -1 137 -10 175 -10 200 0
35 15 47 41 31 71 -20 37 -56 51 -181 66 -149 18 -191 28 -245 59 -50 29 -69
57 -91 132 -16 53 -18 165 -23 1313 -3 690 -9 1261 -13 1268 -14 21 -39 14
-202 -64z"/>
<path d="M12675 6679 c-270 -35 -531 -174 -695 -372 -73 -88 -163 -264 -190
-370 -87 -350 -10 -717 197 -938 43 -45 108 -103 145 -129 l68 -48 -62 -50
c-150 -120 -241 -243 -294 -398 -24 -67 -28 -96 -28 -194 -1 -111 0 -118 33
-185 25 -51 56 -92 113 -148 77 -76 91 -97 65 -97 -7 0 -63 -25 -125 -55 -86
-43 -129 -71 -183 -122 -102 -96 -140 -170 -159 -305 -23 -159 26 -296 149
-419 148 -148 361 -241 676 -296 147 -25 571 -25 710 1 345 63 646 223 822
436 59 70 134 215 152 293 35 146 22 307 -34 425 -77 163 -236 260 -514 312
-164 30 -289 40 -651 50 -506 14 -649 44 -753 159 -57 63 -72 156 -42 258 19
65 91 163 152 207 74 54 111 58 287 30 421 -67 684 -29 938 138 232 152 398
379 449 613 18 85 16 332 -5 417 -40 170 -129 339 -240 455 -235 248 -619 378
-981 332z m458 -168 c133 -35 226 -93 263 -163 12 -22 14 -136 14 -674 0 -638
0 -647 -21 -680 -94 -153 -491 -216 -836 -134 -140 33 -251 99 -289 172 -12
22 -14 132 -14 648 0 692 -3 659 68 722 64 56 194 103 349 128 103 16 377 5
466 -19z m-858 -2831 c50 -10 131 -24 180 -30 114 -13 623 -48 820 -55 224 -9
315 -31 402 -94 135 -98 133 -331 -5 -499 -108 -132 -343 -250 -601 -303 -123
-26 -447 -37 -573 -20 -200 27 -360 91 -466 186 -100 91 -146 180 -161 310
-19 167 29 306 142 411 47 44 138 104 172 114 1 0 41 -9 90 -20z"/>
<path d="M9888 6664 c-666 -103 -1173 -828 -1109 -1587 30 -359 140 -627 360
-886 94 -111 249 -216 398 -270 190 -70 469 -101 727 -82 298 22 479 84 692
237 179 128 258 214 252 276 -3 30 -6 33 -41 36 -48 4 -117 -27 -227 -102
-375 -257 -826 -306 -1199 -130 -182 86 -300 194 -374 343 l-42 84 -3 475 -3
475 884 -6 c565 -4 896 -3 919 3 19 6 47 21 62 35 22 21 26 32 26 83 0 230
-126 491 -331 688 -99 95 -179 152 -296 212 -230 117 -451 154 -695 116z m459
-179 c204 -51 370 -169 439 -310 29 -59 29 -62 32 -262 l3 -203 -756 0 -757 0
4 183 3 182 34 70 c50 103 168 217 281 272 89 43 205 78 312 93 104 15 294 3
405 -25z"/>
<path d="M17730 6674 c-388 -46 -705 -205 -959 -480 -186 -203 -299 -422 -358
-694 -28 -133 -25 -477 6 -620 63 -295 167 -487 376 -695 169 -169 304 -244
537 -299 157 -38 282 -49 523 -49 534 0 841 104 1107 374 268 272 398 605 398
1017 0 182 -17 300 -61 440 -98 304 -316 585 -604 774 -237 157 -463 225 -765
232 -91 3 -181 2 -200 0z m410 -190 c125 -20 287 -75 379 -127 85 -49 176
-132 214 -197 58 -100 58 -97 55 -931 l-3 -764 -32 -67 c-108 -229 -429 -368
-848 -368 -417 0 -779 151 -890 371 -44 86 -46 131 -43 914 3 734 3 740 25
793 90 221 351 355 768 396 70 7 277 -4 375 -20z"/>
<path d="M9384 1975 c-24 -14 -49 -40 -58 -60 l-17 -35 -4537 0 c-4043 0
-4547 -2 -4627 -15 -138 -24 -140 -27 -35 -46 90 -17 354 -18 4645 -19 l4550
-1 27 -44 c32 -53 76 -77 140 -77 60 0 117 34 141 85 71 149 -89 296 -229 212z"/>
<path d="M11089 1977 c-103 -69 -107 -209 -8 -274 85 -56 215 -15 244 78 6 19
81 19 4558 20 4294 0 4557 1 4647 18 105 19 103 22 -35 46 -80 13 -584 15
-4627 15 l-4536 0 -19 38 c-40 76 -153 107 -224 59z"/>
<path d="M9985 1070 l-330 -330 -4191 0 c-4033 0 -4193 -1 -4232 -18 l-41 -18
45 -22 45 -22 4192 0 4192 0 327 -327 328 -328 328 328 327 327 4192 0 4191 0
49 21 48 21 -40 19 c-39 18 -175 18 -4235 19 l-4195 0 -330 330 c-181 182
-332 330 -335 330 -3 0 -154 -148 -335 -330z m915 -365 c0 -6 -131 -141 -290
-300 l-290 -290 -292 293 -293 292 295 295 295 295 287 -287 c159 -159 288
-292 288 -298z"/>
<path d="M10117 902 l-197 -197 200 -200 200 -200 200 200 200 200 -197 197
c-109 109 -200 198 -203 198 -3 0 -94 -89 -203 -198z m348 -342 l-145 -145
-142 143 -143 142 145 145 145 145 142 -142 143 -143 -145 -145z"/>
</g>
</svg>
